HIERARCHY
ROOT Hips
{
	OFFSET 0.000000 0.000000 0.000000
	CHANNELS 6 Xposition Yposition Zposition Zrotation Yrotation Xrotation 
	JOINT LHipJoint
	{
		OFFSET 0.000000 0.000000 0.000000
		CHANNELS 3 Zrotation Yrotation Xrotation
		JOINT LeftUpLeg
		{
			OFFSET 1.363060 -1.794630 0.839290
			CHANNELS 3 Zrotation Yrotation Xrotation
			JOINT LeftLeg
			{
				OFFSET 2.448110 -6.726130 0.000000
				CHANNELS 3 Zrotation Yrotation Xrotation
				JOINT LeftFoot
				{
					OFFSET 2.562200 -7.039590 0.000000
					CHANNELS 3 Zrotation Yrotation Xrotation
					JOINT LeftToeBase
					{
						OFFSET 0.157640 -0.433110 2.322550
						CHANNELS 3 Zrotation Yrotation Xrotation
						End Site
						{
							OFFSET 0.000000 0.000000 0.000000
						}
					}
				}
			}
		}
	}
	JOINT RHipJoint
	{
		OFFSET 0.000000 0.000000 0.000000
		CHANNELS 3 Zrotation Yrotation Xrotation
		JOINT RightUpLeg
		{
			OFFSET -1.305520 -1.794630 0.839290
			CHANNELS 3 Zrotation Yrotation Xrotation
			JOINT RightLeg
			{
				OFFSET -2.542530 -6.985550 0.000000
				CHANNELS 3 Zrotation Yrotation Xrotation
				JOINT RightFoot
				{
					OFFSET -2.568260 -7.056230 0.000000
					CHANNELS 3 Zrotation Yrotation Xrotation
					JOINT RightToeBase
					{
						OFFSET -0.164730 -0.452590 2.363150
						CHANNELS 3 Zrotation Yrotation Xrotation
						End Site
						{
							OFFSET 0.000000 0.000000 0.000000
						}
					}
				}
			}
		}
	}
	JOINT LowerBack
	{
		OFFSET 0.000000 0.000000 0.000000
		CHANNELS 3 Zrotation Yrotation Xrotation
		JOINT Spine
		{
			OFFSET 0.028270 2.035590 -0.193380
			CHANNELS 3 Zrotation Yrotation Xrotation
			JOINT Spine1
			{
				OFFSET 0.056720 2.048850 -0.042750
				CHANNELS 3 Zrotation Yrotation Xrotation
				JOINT Neck
				{
					OFFSET 0.000000 0.000000 0.000000
					CHANNELS 3 Zrotation Yrotation Xrotation
					JOINT Neck1
					{
						OFFSET -0.054170 1.746240 0.172020
						CHANNELS 3 Zrotation Yrotation Xrotation
						JOINT Head
						{
							OFFSET 0.104070 1.761360 -0.123970
							CHANNELS 3 Zrotation Yrotation Xrotation
							End Site
							{
								OFFSET 0.000000 0.000000 0.000000
							}
						}
					}
				}
				JOINT LeftShoulder
				{
					OFFSET 0.000000 0.000000 0.000000
					CHANNELS 3 Zrotation Yrotation Xrotation
					JOINT LeftArm
					{
						OFFSET 3.362410 1.200890 -0.311210
						CHANNELS 3 Zrotation Yrotation Xrotation
						JOINT LeftForeArm
						{
							OFFSET 4.983000 -0.000000 -0.000000
							CHANNELS 3 Zrotation Yrotation Xrotation
							JOINT LeftHand
							{
								OFFSET 3.483560 -0.000000 -0.000000
								CHANNELS 3 Zrotation Yrotation Xrotation
								JOINT LeftFingerBase
								{
									OFFSET 0.000000 0.000000 0.000000
									CHANNELS 3 Zrotation Yrotation Xrotation
									JOINT LeftHandIndex1
									{
										OFFSET 0.715260 -0.000000 -0.000000
										CHANNELS 3 Zrotation Yrotation Xrotation
										End Site
										{
											OFFSET 0.000000 0.000000 0.000000
										}
									}
								}
								JOINT LThumb
								{
									OFFSET 0.000000 0.000000 0.000000
									CHANNELS 3 Zrotation Yrotation Xrotation
									End Site
									{
										OFFSET 0.000000 0.000000 0.000000
									}
								}
							}
						}
					}
				}
				JOINT RightShoulder
				{
					OFFSET 0.000000 0.000000 0.000000
					CHANNELS 3 Zrotation Yrotation Xrotation
					JOINT RightArm
					{
						OFFSET -3.136600 1.374050 -0.404650
						CHANNELS 3 Zrotation Yrotation Xrotation
						JOINT RightForeArm
						{
							OFFSET -5.241900 -0.000000 -0.000000
							CHANNELS 3 Zrotation Yrotation Xrotation
							JOINT RightHand
							{
								OFFSET -3.444170 -0.000000 -0.000000
								CHANNELS 3 Zrotation Yrotation Xrotation
								JOINT RightFingerBase
								{
									OFFSET 0.000000 0.000000 0.000000
									CHANNELS 3 Zrotation Yrotation Xrotation
									JOINT RightHandIndex1
									{
										OFFSET -0.622530 -0.000000 -0.000000
										CHANNELS 3 Zrotation Yrotation Xrotation
										End Site
										{
											OFFSET 0.000000 0.000000 0.000000
										}
									}
								}
								JOINT RThumb
								{
									OFFSET 0.000000 0.000000 0.000000
									CHANNELS 3 Zrotation Yrotation Xrotation
									End Site
									{
										OFFSET 0.000000 0.000000 0.000000
									}
								}
							}
						}
					}
				}
			}
		}
	}
}
MOTION
Frames: 4
Frame Time: 0.008333
40.186122 17.698387 5.514870 -85.695975 -80.795585 96.985410 -1.858324 -2.102534 -1.650410 -4.263955 -3.695322 -21.300567 3.551652 13.025541 37.267025 0.099336 1.768490 -3.064125 0.181700 -2.745600 -7.571300 2.126795 1.636950 -1.204584 29.813966 3.299902 -11.691919 -0.210190 -7.261129 18.817794 -0.071836 -4.166127 10.855057 0.000000 0.000000 0.000000 -0.348195 -0.370226 3.631013 1.138431 -0.092720 -4.433199 -0.594750 -0.266396 -0.510186 -1.660138 0.886932 1.347178 2.492926 0.390954 -2.712809 0.000000 0.000000 0.000000 1.108153 0.747464 -0.073999 1.677850 0.674477 0.000156 -2.532981 -0.622134 0.000026 -0.146859 -0.037438 0.000013 -0.146859 -0.037438 -0.000000 0.000000 0.000000 0.000000 0.000000 0.000000 0.000000 -0.046854 -1.872784 -1.779931 -2.983497 1.363303 0.027191 2.437029 0.976616 0.000148 0.227741 0.085115 0.000074 0.227741 0.085115 0.000000 0.000000 0.000000 0.000000 0.000000 0.000000 0.000000 
40.149619 17.687597 5.500955 -85.649767 -80.676652 96.708953 -1.766196 -2.130486 -1.734769 -4.132392 -3.583589 -22.277165 4.100877 13.623308 39.434169 -0.021475 2.191503 -2.863544 0.263200 -3.300300 -9.115900 2.100183 1.610437 -1.164929 30.066875 3.216296 -11.358220 -0.208001 -7.236031 18.760060 -0.071190 -4.158865 10.840549 0.000000 0.000000 0.000000 -0.379819 -0.372699 3.664493 1.138365 -0.092361 -4.433114 -0.594734 -0.266437 -0.510230 -1.660128 0.886933 1.347165 2.492910 0.390954 -2.712789 0.000000 0.000000 0.000000 1.108157 0.747470 -0.074010 1.677846 0.674467 0.000156 -2.532979 -0.622126 0.000026 -0.146857 -0.037432 0.000013 -0.146857 -0.037432 -0.000000 0.000000 0.000000 0.000000 0.000000 0.000000 0.000000 -0.046850 -1.872781 -1.779949 -2.983502 1.363306 0.027191 2.437034 0.976611 0.000148 0.227742 0.085117 0.000074 0.227742 0.085116 0.000000 0.000000 0.000000 0.000000 0.000000 0.000000 0.000000 
40.110596 17.677312 5.490468 -85.914182 -80.611233 96.785836 -1.685847 -2.158252 -1.813404 -4.064573 -3.505042 -23.234902 4.609479 14.137717 41.358482 -0.184190 2.801526 -2.700514 0.592500 -4.927900 -13.702900 2.078968 1.587447 -1.127595 30.246343 3.129785 -11.056201 -0.204950 -7.210177 18.699308 -0.070556 -4.152986 10.829760 0.000000 0.000000 0.000000 -0.405729 -0.374296 3.695151 1.138257 -0.091627 -4.433022 -0.594729 -0.266010 -0.510260 -1.660142 0.886945 1.347153 2.492940 0.390959 -2.712777 0.000000 0.000000 0.000000 1.108171 0.747704 -0.074090 1.677838 0.674484 0.000157 -2.532979 -0.622116 0.000026 -0.146855 -0.037428 0.000013 -0.146855 -0.037427 -0.000000 0.000000 0.000000 0.000000 0.000000 0.000000 0.000000 -0.046833 -1.872557 -1.779883 -2.983519 1.363339 0.027192 2.437037 0.976609 0.000148 0.227742 0.085118 0.000074 0.227742 0.085118 0.000000 0.000000 0.000000 0.000000 0.000000 0.000000 0.000000 
40.067942 17.670858 5.478065 -85.713451 -80.496619 96.376535 -1.606273 -2.181056 -1.885852 -3.937604 -3.385422 -24.169050 5.119215 14.617731 43.221494 -0.329384 3.359826 -2.711048 0.611200 -5.003600 -13.918900 2.055340 1.559658 -1.090996 30.519900 3.128087 -10.622981 -0.192920 -7.157322 18.560077 -0.070235 -4.146281 10.812774 0.000000 0.000000 0.000000 -0.434428 -0.376484 3.722567 1.138200 -0.091324 -4.432954 -0.594714 -0.266066 -0.510296 -1.660132 0.886945 1.347143 2.492925 0.390958 -2.712761 0.000000 0.000000 0.000000 1.108175 0.747698 -0.074096 1.677834 0.674475 0.000157 -2.532978 -0.622110 0.000026 -0.146853 -0.037423 0.000013 -0.146853 -0.037422 -0.000000 0.000000 0.000000 0.000000 0.000000 0.000000 0.000000 -0.046830 -1.872564 -1.779902 -2.983523 1.363339 0.027192 2.437042 0.976605 0.000148 0.227743 0.085120 0.000074 0.227743 0.085119 0.000000 0.000000 0.000000 0.000000 0.000000 0.000000 0.000000 
